<svg width="367" height="112" viewBox="0 0 367 112" fill="none" xmlns="http://www.w3.org/2000/svg">
<mask id="path-1-inside-1" fill="white">
<ellipse cx="183.5" cy="47.5" rx="16.5" ry="4.5"/>
</mask>
<ellipse cx="183.5" cy="47.5" rx="16.5" ry="4.5" fill="#DF5860"/>
<path d="M194 47.5C194 46.2353 194.49 45.3062 194.865 44.806C195.046 44.5654 195.208 44.4098 195.302 44.3268C195.352 44.2835 195.39 44.2534 195.415 44.2354C195.427 44.2262 195.436 44.2196 195.442 44.2153C195.449 44.2111 195.452 44.209 195.452 44.209C195.452 44.209 195.449 44.2107 195.443 44.2143C195.438 44.2178 195.429 44.2228 195.417 44.2293C195.394 44.2424 195.361 44.2605 195.316 44.2828C195.226 44.3281 195.101 44.3856 194.936 44.4522C194.602 44.5872 194.155 44.7388 193.589 44.8934C191.25 45.5312 187.681 46 183.5 46V58C188.432 58 193.113 57.4614 196.746 56.4706C198.519 55.9869 200.388 55.3042 201.955 54.2942C203.253 53.4574 206 51.2988 206 47.5H194ZM183.5 46C179.319 46 175.75 45.5312 173.411 44.8934C172.845 44.7388 172.398 44.5872 172.064 44.4522C171.899 44.3856 171.774 44.3281 171.684 44.2828C171.639 44.2605 171.606 44.2424 171.583 44.2293C171.571 44.2228 171.562 44.2178 171.557 44.2143C171.551 44.2107 171.548 44.209 171.548 44.209C171.548 44.209 171.551 44.2111 171.558 44.2153C171.564 44.2196 171.573 44.2262 171.585 44.2354C171.61 44.2534 171.648 44.2835 171.698 44.3268C171.792 44.4098 171.954 44.5654 172.135 44.806C172.51 45.3062 173 46.2353 173 47.5H161C161 51.2988 163.747 53.4574 165.045 54.2942C166.612 55.3042 168.481 55.9869 170.254 56.4706C173.887 57.4614 178.568 58 183.5 58V46ZM173 47.5C173 48.7647 172.51 49.6938 172.135 50.194C171.954 50.4346 171.792 50.5902 171.698 50.6732C171.648 50.7165 171.61 50.7466 171.585 50.7646C171.573 50.7738 171.564 50.7804 171.558 50.7847C171.551 50.7889 171.548 50.791 171.548 50.791C171.548 50.791 171.551 50.7893 171.557 50.7857C171.562 50.7822 171.571 50.7772 171.583 50.7707C171.606 50.7576 171.639 50.7395 171.684 50.7172C171.774 50.6719 171.899 50.6144 172.064 50.5478C172.398 50.4128 172.845 50.2612 173.411 50.1066C175.75 49.4688 179.319 49 183.5 49V37C178.568 37 173.887 37.5386 170.254 38.5294C168.481 39.0131 166.612 39.6958 165.045 40.7058C163.747 41.5426 161 43.7012 161 47.5H173ZM183.5 49C187.681 49 191.25 49.4688 193.589 50.1066C194.155 50.2612 194.602 50.4128 194.936 50.5478C195.101 50.6144 195.226 50.6719 195.316 50.7172C195.361 50.7395 195.394 50.7576 195.417 50.7707C195.429 50.7772 195.438 50.7822 195.443 50.7857C195.449 50.7893 195.452 50.791 195.452 50.791C195.452 50.791 195.449 50.7889 195.442 50.7847C195.436 50.7804 195.427 50.7738 195.415 50.7646C195.39 50.7466 195.352 50.7165 195.302 50.6732C195.208 50.5902 195.046 50.4346 194.865 50.194C194.49 49.6938 194 48.7647 194 47.5H206C206 43.7012 203.253 41.5426 201.955 40.7058C200.388 39.6958 198.519 39.0131 196.746 38.5294C193.113 37.5386 188.432 37 183.5 37V49Z" fill="#DF5860" mask="url(#path-1-inside-1)"/>
<path fill-rule="evenodd" clip-rule="evenodd" d="M170.72 8.13642C172.05 8.10907 172.696 6.48801 171.741 5.55976V5.55976C171.455 5.28112 171.066 5.12868 170.666 5.13689C94.9923 6.69142 32.3122 21.3716 11.4274 41.097C10.7405 41.7457 10.8788 42.8418 11.6681 43.361V43.361C12.2694 43.7566 13.0638 43.6712 13.5891 43.1792C15.3025 41.5743 17.3673 39.9596 19.8035 38.3436C28.5438 32.5461 41.3891 27.2087 57.5311 22.68C86.864 14.4505 126.52 9.04496 170.72 8.13642ZM8.04244 60.3735C7.65319 59.4574 6.52288 59.0248 5.69135 59.5719V59.5719C5.14354 59.9323 4.89516 60.6059 5.13943 61.2144C14.7269 85.0998 83.7012 103.941 169.658 105.842C170.058 105.851 170.449 105.699 170.736 105.42V105.42C171.689 104.492 171.046 102.872 169.716 102.843C125.92 101.874 86.6418 96.488 57.5311 88.3209C41.3891 83.7921 28.5438 78.4548 19.8035 72.6573C13.5443 68.5055 9.73704 64.3617 8.04244 60.3735ZM197.308 102.864C195.977 102.891 195.332 104.512 196.286 105.441V105.441C196.572 105.719 196.962 105.872 197.361 105.863C283.121 104.098 352.186 85.4749 362.632 61.7567C362.904 61.1401 362.661 60.4413 362.101 60.0675V60.0675C361.286 59.5248 360.175 59.9213 359.764 60.8095C357.983 64.6633 354.228 68.6565 348.196 72.6573C339.456 78.4548 326.611 83.7921 310.469 88.3209C281.142 96.5487 241.496 101.954 197.308 102.864ZM354.658 43.413C355.185 43.9168 355.992 44.0057 356.599 43.6011V43.6011C357.376 43.0829 357.515 42.0028 356.843 41.3547C336.144 21.4141 272.794 6.57083 196.351 5.11746C195.952 5.10988 195.564 5.26229 195.278 5.54037V5.54037C194.324 6.46939 194.971 8.09173 196.303 8.11707C240.895 8.96546 280.92 14.3899 310.469 22.68C326.611 27.2087 339.456 32.5461 348.196 38.3436C350.751 40.0381 352.897 41.7312 354.658 43.413Z" fill="#DF5860"/>
<path d="M184.345 98.3339L192.028 110.465C192.449 111.131 191.971 112 191.183 112L175.817 112C175.029 112 174.551 111.131 174.972 110.465L182.655 98.3339C183.048 97.714 183.952 97.714 184.345 98.3339Z" fill="#DF5860"/>
<path d="M182.655 13.6661L174.972 1.53505C174.551 0.869235 175.029 0 175.817 0L191.183 0C191.971 0 192.449 0.869237 192.028 1.53505L184.345 13.6661C183.952 14.286 183.048 14.286 182.655 13.6661Z" fill="#DF5860"/>
<path d="M12.8826 50.4176L1.39761 55.3944C0.737295 55.6805 -3.5124e-08 55.1965 -6.65806e-08 54.4768L-5.01668e-07 44.5232C-5.33124e-07 43.8035 0.737295 43.3195 1.39761 43.6056L12.8826 48.5824C13.6858 48.9305 13.6858 50.0695 12.8826 50.4176Z" fill="#DF5860"/>
<path d="M354.117 48.5824L365.602 43.6056C366.263 43.3195 367 43.8035 367 44.5232L367 54.4768C367 55.1965 366.263 55.6805 365.602 55.3944L354.117 50.4176C353.314 50.0695 353.314 48.9305 354.117 48.5824Z" fill="#DF5860"/>
</svg>
