<svg width="186" height="198" viewBox="0 0 186 198" fill="none" xmlns="http://www.w3.org/2000/svg">
<path d="M19.7975 191.29V191.223C19.7975 188.086 18.1338 186.517 15.4387 185.482C17.1023 184.548 18.4998 183.079 18.4998 180.442V180.375C18.4998 176.703 15.5718 174.333 10.8137 174.333H0V197.699H11.0799C16.3371 197.699 19.7975 195.563 19.7975 191.29ZM13.409 181.31C13.409 183.045 11.9783 183.78 9.71572 183.78H4.99096V178.84H10.0484C12.2112 178.84 13.409 179.707 13.409 181.243V181.31ZM14.7067 190.656C14.7067 192.392 13.3425 193.193 11.0799 193.193H4.99096V188.052H10.9136C13.5421 188.052 14.7067 189.02 14.7067 190.589V190.656Z" fill="#F0B90B"/>
<path d="M44.7077 197.699V174.333H39.6501V188.72L28.7366 174.333H24.0117V197.699H29.0693V182.845L40.3489 197.699H44.7077Z" fill="#F0B90B"/>
<path d="M70.0982 191.29V191.223C70.0982 188.086 68.4345 186.517 65.7394 185.482C67.403 184.548 68.8007 183.079 68.8007 180.442V180.375C68.8007 176.703 65.8725 174.333 61.1146 174.333H50.3008V197.699H61.3808C66.6378 197.699 70.0982 195.563 70.0982 191.29ZM63.7098 181.31C63.7098 183.045 62.2792 183.78 60.0166 183.78H55.2917V178.84H60.3493C62.512 178.84 63.7098 179.707 63.7098 181.243V181.31ZM65.0076 190.656C65.0076 192.392 63.6434 193.193 61.3808 193.193H55.2917V188.052H61.2143C63.843 188.052 65.0076 189.02 65.0076 190.589V190.656Z" fill="#F0B90B"/>
<path d="M99.1983 193.279L96.5676 190.628C94.5697 192.484 92.7383 193.644 89.8746 193.644C85.4125 193.644 82.1825 189.932 82.1825 185.36C82.1825 180.788 85.4125 177.143 89.8746 177.143C92.5385 177.143 94.5365 178.303 96.4011 180.026L99.0318 177.01C96.8008 174.89 94.2034 173.399 89.9078 173.399C82.8485 173.399 77.8867 178.8 77.8867 185.426C77.8867 192.119 82.9483 197.388 89.7413 197.388C94.1035 197.388 96.7674 195.797 99.1983 193.279Z" fill="#F0B90B"/>
<path d="M118.718 187.216V196.99H122.813V173.796H118.718V183.438H107.596V173.796H103.5V196.99H107.596V187.216H118.718Z" fill="#F0B90B"/>
<path d="M140.857 173.631H137.061L126.805 196.99H131L133.398 191.391H144.42L146.784 196.99H151.113L140.857 173.631ZM142.921 187.779H134.896L138.892 178.502L142.921 187.779Z" fill="#F0B90B"/>
<path d="M155.344 173.796V196.99H159.44V173.796H155.344Z" fill="#F0B90B"/>
<path d="M181.963 189.833L169.476 173.796H165.68V196.99H169.709V180.489L182.562 196.99H185.992V173.796H181.963V189.833Z" fill="#F0B90B"/>
<path d="M52.9056 22.9756L92.5223 0L132.138 22.9756L117.573 31.4633L92.5223 16.9756L67.4705 31.4633L52.9056 22.9756ZM132.138 51.9511L117.573 43.4634L92.5223 57.9511L67.4705 43.4634L52.9056 51.9511V68.9265L77.9575 83.4144V112.39L92.5223 120.878L107.087 112.39V83.4144L132.138 68.9265V51.9511ZM132.138 97.9023V80.9267L117.573 89.4145V106.39L132.138 97.9023ZM142.479 103.902L117.428 118.39V135.366L157.044 112.39V66.4388L142.479 74.9266V103.902ZM127.914 37.4634L142.479 45.9511V62.9268L157.044 54.4389V37.4634L142.479 28.9756L127.914 37.4634ZM77.9575 124.537V141.512L92.5223 150L107.087 141.512V124.537L92.5223 133.024L77.9575 124.537ZM52.9056 97.9023L67.4705 106.39V89.4145L52.9056 80.9267V97.9023ZM77.9575 37.4634L92.5223 45.9511L107.087 37.4634L92.5223 28.9756L77.9575 37.4634ZM42.5648 45.9511L57.1297 37.4634L42.5648 28.9756L28 37.4634V54.4389L42.5648 62.9268V45.9511ZM42.5648 74.9266L28 66.4388V112.39L67.616 135.366V118.39L42.5648 103.902V74.9266Z" fill="#F0B90B"/>
</svg>
