<svg width="359" height="384" viewBox="0 0 359 384" fill="none" xmlns="http://www.w3.org/2000/svg">
<g opacity="0.8">
<path d="M78.0468 14.1834H78.8079L79.3568 13.6561L91.6025 1.89196H343.492L357.109 13.181V357.482L340.907 371.58H269.965H269.389L268.911 371.901L255.315 381.035H14.145L1.89099 368.9V26.318L14.145 14.1834H78.0468Z" fill="#005365"/>
<path d="M78.0468 14.1834H78.8079L79.3568 13.6561L91.6025 1.89196H343.492L357.109 13.181V357.482L340.907 371.58H269.965H269.389L268.911 371.901L255.315 381.035H14.145L1.89099 368.9V26.318L14.145 14.1834H78.0468Z" fill="url(#paint0_linear)" fill-opacity="0.6"/>
<path d="M78.0468 14.1834H78.8079L79.3568 13.6561L91.6025 1.89196H343.492L357.109 13.181V357.482L340.907 371.58H269.965H269.389L268.911 371.901L255.315 381.035H14.145L1.89099 368.9V26.318L14.145 14.1834H78.0468Z" stroke="url(#paint1_linear)" stroke-width="3.78197"/>
</g>
<line x1="281.48" y1="381.979" x2="337.776" y2="381.979" stroke="#427174" stroke-width="3.78197"/>
<g clip-path="url(#clip0)">
<path opacity="0.5" d="M75.4187 15.0438L138.486 82.9485L289.141 83.6278L358.034 15.0344" stroke="#009FE2" stroke-width="2"/>
<path opacity="0.5" d="M277.083 366.367L216.367 300.993L71.3257 300.339L5.00012 366.376" stroke="#009FE2" stroke-width="2"/>
<path d="M95.8144 4.97268L143.109 55.895L256.087 56.4045L307.75 4.96563" stroke="#009FE2" stroke-width="2"/>
<path d="M253.936 381.779L206.641 330.857L93.6633 330.347L41.9998 381.786" stroke="#009FE2" stroke-width="2"/>
</g>
<line x1="15.3535" y1="3.78284" x2="71.6495" y2="3.78284" stroke="#A1DEE2" stroke-width="3.78197"/>
<defs>
<linearGradient id="paint0_linear" x1="179.5" y1="0.000976562" x2="179.5" y2="382.926" gradientUnits="userSpaceOnUse">
<stop stop-color="#3FF2F2"/>
<stop offset="1" stop-opacity="0"/>
</linearGradient>
<linearGradient id="paint1_linear" x1="179.5" y1="0.000976562" x2="179.5" y2="382.926" gradientUnits="userSpaceOnUse">
<stop stop-color="#61DDFF"/>
<stop offset="1" stop-color="#053B21"/>
</linearGradient>
<clipPath id="clip0">
<rect width="353" height="384" fill="white" transform="translate(5)"/>
</clipPath>
</defs>
</svg>
