<svg width="359" height="384" viewBox="0 0 359 384" fill="none" xmlns="http://www.w3.org/2000/svg">
<g opacity="0.8">
<path d="M78.0468 14.1824H78.8079L79.3568 13.6551L91.6025 1.89099H343.492L357.109 13.1801V357.481L340.907 371.579H269.965H269.389L268.911 371.9L255.315 381.034H14.145L1.89099 368.899V26.317L14.145 14.1824H78.0468Z" fill="#6C0725"/>
<path d="M78.0468 14.1824H78.8079L79.3568 13.6551L91.6025 1.89099H343.492L357.109 13.1801V357.481L340.907 371.579H269.965H269.389L268.911 371.9L255.315 381.034H14.145L1.89099 368.899V26.317L14.145 14.1824H78.0468Z" fill="url(#paint0_linear)" fill-opacity="0.7"/>
<path d="M78.0468 14.1824H78.8079L79.3568 13.6551L91.6025 1.89099H343.492L357.109 13.1801V357.481L340.907 371.579H269.965H269.389L268.911 371.9L255.315 381.034H14.145L1.89099 368.899V26.317L14.145 14.1824H78.0468Z" stroke="url(#paint1_linear)" stroke-width="3.78197"/>
</g>
<line x1="281.48" y1="381.979" x2="337.776" y2="381.979" stroke="#6C0725" stroke-width="3.78197"/>
<path d="M213 8V58.2422H281.756V117H359" stroke="#741C1C" stroke-width="2"/>
<path d="M153 376L153 322.992L81.4186 322.992L81.4186 261L0.999999 261" stroke="#741C1C" stroke-width="2"/>
<path d="M202 376L202 318.844L275.936 318.844L275.936 252L359 252" stroke="#741C1C" stroke-width="2"/>
<path d="M153 5L153 58.0078L82.3605 58.0078L82.3605 120L3 120" stroke="#741C1C" stroke-width="2"/>
<path d="M258.845 6V42.7649H306.011V85.7612H358.999" stroke="#934146" stroke-width="2"/>
<path d="M100.155 378.008L100.155 340.668L52.9894 340.668L52.9894 297L0.000662984 297" stroke="#934146" stroke-width="2"/>
<path d="M259 376L259 333.594L306.093 333.594L306.093 284L359 284" stroke="#934146" stroke-width="2"/>
<path d="M105.729 3L105.729 41.4883L58.0147 41.4883L58.0147 86.5L4.40981 86.5" stroke="#934146" stroke-width="2"/>
<line x1="15.3535" y1="3.78187" x2="71.6495" y2="3.78187" stroke="#6C0725" stroke-width="3.78197"/>
<defs>
<linearGradient id="paint0_linear" x1="179.5" y1="0" x2="179.5" y2="382.925" gradientUnits="userSpaceOnUse">
<stop stop-color="#F85151"/>
<stop offset="1" stop-opacity="0"/>
</linearGradient>
<linearGradient id="paint1_linear" x1="179.5" y1="0" x2="179.5" y2="382.925" gradientUnits="userSpaceOnUse">
<stop stop-color="#DD818C"/>
<stop offset="1" stop-color="#22142E"/>
</linearGradient>
</defs>
</svg>
