<svg width="359" height="384" viewBox="0 0 359 384" fill="none" xmlns="http://www.w3.org/2000/svg">
<g clip-path="url(#clip0)">
<g opacity="0.8">
<path d="M78.0468 14.1824H78.8079L79.3568 13.6551L91.6025 1.89099H343.492L357.109 13.1801V357.481L340.907 371.579H269.965H269.389L268.911 371.9L255.315 381.034H14.145L1.89099 368.899V26.317L14.145 14.1824H78.0468Z" fill="#6B4110"/>
<path d="M78.0468 14.1824H78.8079L79.3568 13.6551L91.6025 1.89099H343.492L357.109 13.1801V357.481L340.907 371.579H269.965H269.389L268.911 371.9L255.315 381.034H14.145L1.89099 368.899V26.317L14.145 14.1824H78.0468Z" fill="url(#paint0_linear)" fill-opacity="0.5"/>
<path d="M78.0468 14.1824H78.8079L79.3568 13.6551L91.6025 1.89099H343.492L357.109 13.1801V357.481L340.907 371.579H269.965H269.389L268.911 371.9L255.315 381.034H14.145L1.89099 368.899V26.317L14.145 14.1824H78.0468Z" stroke="url(#paint1_linear)" stroke-width="3.78197"/>
</g>
<line x1="281.48" y1="381.978" x2="337.776" y2="381.978" stroke="#E3B66B" stroke-width="3.78197"/>
<path d="M1 180L278 0" stroke="#D9C29E" stroke-width="2"/>
<path d="M84 379L359 201" stroke="#D9C29E" stroke-width="2"/>
<path d="M1 104L159 2" stroke="#D9C29E" stroke-width="2"/>
<path d="M197 382L359 278" stroke="#D9C29E" stroke-width="2"/>
<g opacity="0.5">
<path d="M-4 131L197 2" stroke="#D9C29E" stroke-width="2"/>
<path d="M155 380L359 249" stroke="#D9C29E" stroke-width="2"/>
</g>
<line x1="15.3535" y1="3.78187" x2="71.6495" y2="3.78187" stroke="#D9C29E" stroke-width="3.78197"/>
</g>
<defs>
<linearGradient id="paint0_linear" x1="108" y1="2.76787e-06" x2="304" y2="383" gradientUnits="userSpaceOnUse">
<stop stop-color="#FFC93F"/>
<stop offset="1" stop-color="#550909"/>
</linearGradient>
<linearGradient id="paint1_linear" x1="179.5" y1="0" x2="179.5" y2="382.925" gradientUnits="userSpaceOnUse">
<stop stop-color="#DDB280"/>
<stop offset="1" stop-color="#763B10"/>
</linearGradient>
<clipPath id="clip0">
<rect width="359" height="384" fill="white"/>
</clipPath>
</defs>
</svg>
