<svg width="156" height="206" viewBox="0 0 156 206" fill="none" xmlns="http://www.w3.org/2000/svg">
<g filter="url(#filter0_d)">
<path d="M50.3741 168.8H34.8541V161.2H31.5741V192H50.3741C53.0541 192 55.2141 189.84 55.2141 187.16V173.64C55.2141 170.96 53.0541 168.8 50.3741 168.8ZM51.9341 187.16C51.9341 188 51.2141 188.72 50.3741 188.72H36.4541C35.5741 188.72 34.8541 188 34.8541 187.16V173.64C34.8541 172.8 35.5741 172.08 36.4541 172.08H50.3741C51.2141 172.08 51.9341 172.8 51.9341 173.64V187.16ZM89.6538 173.64C89.6538 170.96 87.4938 168.8 84.7738 168.8H70.8538C68.1738 168.8 66.0138 170.96 66.0138 173.64V177.2C66.0138 179.88 68.1738 182.04 70.8538 182.04H84.7738C85.6138 182.04 86.3338 182.76 86.3338 183.6V187.16C86.3338 188 85.6138 188.72 84.7738 188.72H70.8538C70.0138 188.72 69.2938 188 69.2938 187.16V186.84H66.0138V187.16C66.0138 189.84 68.1738 192 70.8538 192H84.7738C87.4938 192 89.6538 189.84 89.6538 187.16V183.6C89.6538 180.92 87.4938 178.76 84.7738 178.76H70.8538C70.0138 178.76 69.2938 178.04 69.2938 177.2V173.64C69.2938 172.8 70.0138 172.08 70.8538 172.08H84.7738C85.6138 172.08 86.3338 172.8 86.3338 173.64V173.96H89.6538V173.64ZM105.653 188.72C104.813 188.72 104.093 188 104.093 187.16V173.64C104.093 172.8 104.813 172.08 105.653 172.08H124.373V168.8H105.653C102.973 168.8 100.813 170.96 100.813 173.64V187.16C100.813 189.84 102.973 192 105.653 192H124.453V188.72H105.653Z" fill="#EDCD49"/>
</g>
<g filter="url(#filter1_d)">
<path d="M53.142 64.9574L41.5067 53.3216L77.9998 16.8284L114.506 53.3334L102.87 64.969L79.4139 41.5138L77.9997 40.0996L76.5855 41.5138L53.142 64.9574ZM102.87 91.0308L114.512 102.66L77.9998 139.172L41.4882 102.66L53.1393 91.0413L76.5856 114.486L77.9998 115.9L79.4139 114.486L102.87 91.0308ZM16.8284 77.9998L28.4646 66.362L40.0995 77.9969L28.4633 89.6331L16.8284 77.9998ZM127.536 89.6412L115.9 78.0061L127.536 66.3701L139.171 78.0051L127.536 89.6412Z" stroke="#F3BA2F" stroke-width="4"/>
<mask id="path-3-inside-1" fill="white">
<path d="M92.6698 77.9924H92.6759L78 63.3154L67.1523 74.1601L65.9061 75.4068L63.3359 77.9776L63.3154 77.9976L63.3359 78.0186L78 92.6848L92.677 78.0078L92.6841 77.9996L92.6708 77.9924"/>
</mask>
<path d="M92.6759 77.9924V81.9924H102.332L95.5045 75.1641L92.6759 77.9924ZM78 63.3154L80.8286 60.4871L78.0005 57.6589L75.172 60.4866L78 63.3154ZM67.1523 74.1601L64.3243 71.3313L64.3233 71.3323L67.1523 74.1601ZM65.9061 75.4068L68.7349 78.235L68.7352 78.2347L65.9061 75.4068ZM63.3359 77.9776L66.1278 80.8421L66.1464 80.824L66.1646 80.8057L63.3359 77.9776ZM63.3154 77.9976L60.5235 75.1331L57.6577 77.9263L60.4523 80.7908L63.3154 77.9976ZM63.3359 78.0186L60.4727 80.8118L60.4899 80.8294L60.5073 80.8468L63.3359 78.0186ZM78 92.6848L75.1714 95.513L77.9998 98.3419L80.8285 95.5132L78 92.6848ZM92.677 78.0078L95.5054 80.8362L95.5996 80.742L95.6874 80.6417L92.677 78.0078ZM92.6841 77.9996L95.6946 80.6335L98.9987 76.8569L94.5806 74.4778L92.6841 77.9996ZM92.6698 81.9924H92.6759V73.9924H92.6698V81.9924ZM95.5045 75.1641L80.8286 60.4871L75.1715 66.1437L89.8474 80.8208L95.5045 75.1641ZM75.172 60.4866L64.3243 71.3313L69.9804 76.9889L80.8281 66.1442L75.172 60.4866ZM64.3233 71.3323L63.0771 72.579L68.7352 78.2347L69.9814 76.988L64.3233 71.3323ZM63.0774 72.5787L60.5072 75.1495L66.1646 80.8057L68.7349 78.235L63.0774 72.5787ZM60.544 75.1131L60.5235 75.1331L66.1074 80.862L66.1278 80.8421L60.544 75.1131ZM60.4523 80.7908L60.4727 80.8118L66.1991 75.2253L66.1786 75.2043L60.4523 80.7908ZM60.5073 80.8468L75.1714 95.513L80.8287 89.8566L66.1645 75.1903L60.5073 80.8468ZM80.8285 95.5132L95.5054 80.8362L89.8485 75.1794L75.1716 89.8564L80.8285 95.5132ZM95.6874 80.6417L95.6946 80.6335L89.6737 75.3658L89.6665 75.374L95.6874 80.6417ZM94.5806 74.4778L94.5673 74.4706L90.7743 81.5143L90.7876 81.5214L94.5806 74.4778Z" fill="#F3BA2F" mask="url(#path-3-inside-1)"/>
</g>
<defs>
<filter id="filter0_d" x="17.5742" y="147.2" width="120.879" height="58.8" filterUnits="userSpaceOnUse" color-interpolation-filters="sRGB">
<feFlood flood-opacity="0" result="BackgroundImageFix"/>
<feColorMatrix in="SourceAlpha" type="matrix" values="0 0 0 0 0 0 0 0 0 0 0 0 0 0 0 0 0 0 127 0" result="hardAlpha"/>
<feOffset/>
<feGaussianBlur stdDeviation="7"/>
<feColorMatrix type="matrix" values="0 0 0 0 0.568579 0 0 0 0 0.386314 0 0 0 0 1 0 0 0 0.3 0"/>
<feBlend mode="normal" in2="BackgroundImageFix" result="effect1_dropShadow"/>
<feBlend mode="normal" in="SourceGraphic" in2="effect1_dropShadow" result="shape"/>
</filter>
<filter id="filter1_d" x="0" y="0" width="156" height="156" filterUnits="userSpaceOnUse" color-interpolation-filters="sRGB">
<feFlood flood-opacity="0" result="BackgroundImageFix"/>
<feColorMatrix in="SourceAlpha" type="matrix" values="0 0 0 0 0 0 0 0 0 0 0 0 0 0 0 0 0 0 127 0" result="hardAlpha"/>
<feOffset/>
<feGaussianBlur stdDeviation="7"/>
<feColorMatrix type="matrix" values="0 0 0 0 0.568579 0 0 0 0 0.386314 0 0 0 0 1 0 0 0 0.3 0"/>
<feBlend mode="normal" in2="BackgroundImageFix" result="effect1_dropShadow"/>
<feBlend mode="normal" in="SourceGraphic" in2="effect1_dropShadow" result="shape"/>
</filter>
</defs>
</svg>
