<svg width="527" height="111" viewBox="0 0 527 111" fill="none" xmlns="http://www.w3.org/2000/svg">
<g filter="url(#filter0_d)">
<g filter="url(#filter1_i)">
<path d="M16 16H98M511 95H489.5M472.5 95L60 95H32.5L16 80.3285L16 30.6714H103L115 16L483.617 16L511 30.6715V80.3286H489.5L472.5 95Z" stroke="white" stroke-width="3"/>
</g>
<path d="M196.676 48.6C196.676 46.32 194.786 44.43 192.476 44.43H175.076V66H179.036V58.59H179.126H186.116L192.356 66H196.676V64.98L191.306 58.59H192.476C194.786 58.59 196.676 56.7 196.676 54.42V48.6ZM179.246 54.63C179.126 54.63 179.036 54.54 179.036 54.42V48.6C179.036 48.48 179.126 48.39 179.246 48.39H192.476C192.596 48.39 192.686 48.48 192.686 48.6V54.42C192.686 54.54 192.596 54.63 192.476 54.63H179.246ZM219.242 48.6H209.852C207.572 48.6 205.712 50.46 205.712 52.74V61.86C205.712 64.14 207.572 66 209.852 66H223.382V62.07H209.852C209.732 62.07 209.642 61.98 209.642 61.86V59.28H223.382V52.74C223.382 50.46 221.522 48.6 219.242 48.6ZM209.642 55.32V52.74C209.642 52.62 209.732 52.53 209.852 52.53H219.242C219.362 52.53 219.452 52.62 219.452 52.74V55.32H209.642ZM249.472 68.76V52.74C249.472 50.46 247.642 48.6 245.362 48.6H235.942C233.662 48.6 231.802 50.46 231.802 52.74V61.86C231.802 64.14 233.662 66 235.942 66H245.542V68.76C245.542 68.88 245.452 68.94 245.362 68.94H234.712V72.9H245.362C247.642 72.9 249.472 71.04 249.472 68.76ZM235.942 62.07C235.822 62.07 235.732 61.98 235.732 61.86V52.74C235.732 52.62 235.822 52.53 235.942 52.53H245.362C245.452 52.53 245.542 52.62 245.542 52.74V61.86C245.542 61.98 245.452 62.07 245.362 62.07H235.942ZM258.611 66H262.541V48.6H258.611V66ZM258.611 42.9V46.86H262.541V42.9H258.611ZM289.163 52.74C289.163 50.46 287.333 48.6 285.023 48.6H275.633C273.353 48.6 271.493 50.46 271.493 52.74V55.14C271.493 57.42 273.353 59.28 275.633 59.28H285.023C285.143 59.28 285.233 59.34 285.233 59.46V61.86C285.233 61.98 285.143 62.07 285.023 62.07H275.633C275.513 62.07 275.423 61.98 275.423 61.86V61.11H271.493V61.86C271.493 64.14 273.353 66 275.633 66H285.023C287.333 66 289.163 64.14 289.163 61.86V59.46C289.163 57.18 287.333 55.32 285.023 55.32H275.633C275.513 55.32 275.423 55.26 275.423 55.14V52.74C275.423 52.62 275.513 52.53 275.633 52.53H285.023C285.143 52.53 285.233 52.62 285.233 52.74V53.49H289.163V52.74ZM308.919 52.53V48.6H302.139V42.9H298.209V61.86C298.209 64.14 300.039 66 302.349 66H308.919V62.07H302.349C302.229 62.07 302.139 61.98 302.139 61.86V52.53H308.919ZM330.775 48.6H321.385C319.105 48.6 317.245 50.46 317.245 52.74V61.86C317.245 64.14 319.105 66 321.385 66H334.915V62.07H321.385C321.265 62.07 321.175 61.98 321.175 61.86V59.28H334.915V52.74C334.915 50.46 333.055 48.6 330.775 48.6ZM321.175 55.32V52.74C321.175 52.62 321.265 52.53 321.385 52.53H330.775C330.895 52.53 330.985 52.62 330.985 52.74V55.32H321.175ZM347.425 48.6C345.145 48.6 343.285 50.46 343.285 52.74V66H347.215V52.74C347.215 52.62 347.305 52.53 347.425 52.53H357.085V48.6H347.425Z" fill="white"/>
</g>
<defs>
<filter id="filter0_d" x="0.5" y="0.5" width="526" height="110" filterUnits="userSpaceOnUse" color-interpolation-filters="sRGB">
<feFlood flood-opacity="0" result="BackgroundImageFix"/>
<feColorMatrix in="SourceAlpha" type="matrix" values="0 0 0 0 0 0 0 0 0 0 0 0 0 0 0 0 0 0 127 0" result="hardAlpha"/>
<feOffset/>
<feGaussianBlur stdDeviation="7"/>
<feColorMatrix type="matrix" values="0 0 0 0 0.568579 0 0 0 0 0.386314 0 0 0 0 1 0 0 0 0.3 0"/>
<feBlend mode="normal" in2="BackgroundImageFix" result="effect1_dropShadow"/>
<feBlend mode="normal" in="SourceGraphic" in2="effect1_dropShadow" result="shape"/>
</filter>
<filter id="filter1_i" x="14.5" y="14.5" width="498" height="86" filterUnits="userSpaceOnUse" color-interpolation-filters="sRGB">
<feFlood flood-opacity="0" result="BackgroundImageFix"/>
<feBlend mode="normal" in="SourceGraphic" in2="BackgroundImageFix" result="shape"/>
<feColorMatrix in="SourceAlpha" type="matrix" values="0 0 0 0 0 0 0 0 0 0 0 0 0 0 0 0 0 0 127 0" result="hardAlpha"/>
<feOffset dy="4"/>
<feGaussianBlur stdDeviation="2"/>
<feComposite in2="hardAlpha" operator="arithmetic" k2="-1" k3="1"/>
<feColorMatrix type="matrix" values="0 0 0 0 0 0 0 0 0 0 0 0 0 0 0 0 0 0 0.25 0"/>
<feBlend mode="normal" in2="shape" result="effect1_innerShadow"/>
</filter>
</defs>
</svg>
