<svg width="206" height="206" viewBox="0 0 206 206" fill="none" xmlns="http://www.w3.org/2000/svg">
<path opacity="0.8" d="M10.2068 102.1L10.7283 101.578L10.384 100.926L8.4891 97.3353L103.458 2.36602L107.067 4.07113L198.078 95.0818L200.317 99.6414L195.212 104.747L194.751 105.207L194.986 105.815L196.142 108.802L101.987 202.958L98.2337 200.937L7.68897 110.392L5.66771 106.639L10.2068 102.1Z" fill="#1B1429" stroke="#F3BA2F" stroke-width="2"/>
<line x1="198.297" y1="107.146" x2="203.386" y2="102.057" stroke="#F3BA2F" stroke-width="2"/>
<path d="M24.9913 104.038L26.9086 108.081L36.9942 118.167L52.5151 120.084L96.296 163.865L86.7348 167.907L96.8204 177.993L100.863 179.91L179.824 100.949L177.907 96.9066L167.821 86.821L163.778 96.3822L119.998 52.6013L118.08 37.0804L107.995 26.9948L103.952 25.0775L24.9913 104.038Z" fill="#110A19" stroke="#F3BA2F" stroke-width="2"/>
<line x1="0.788743" y1="105.199" x2="5.87774" y2="100.11" stroke="#F3BA2F" stroke-width="2"/>
<path d="M87.2794 93.1351L79.5172 85.3726L103.05 61.8395L126.591 85.3801L118.829 93.1424L103.757 78.0713L103.05 77.3642L102.343 78.0713L87.2794 93.1351ZM103.757 123.988L118.829 108.917L126.596 116.675L103.05 140.22L79.5052 116.675L87.2779 108.924L102.343 123.988L103.05 124.695L103.757 123.988ZM63.8603 101.03L71.623 93.2657L79.3849 101.028L71.6222 108.79L63.8603 101.03ZM134.478 108.796L126.716 101.034L134.478 93.2708L142.24 101.033L134.478 108.796Z" fill="#EDCD49" stroke="#F3BA2F" stroke-width="2"/>
<mask id="path-6-inside-1" fill="white">
<path d="M112.357 101.025H112.361L103.05 91.7129L96.1679 98.5932L95.3773 99.3842L93.7466 101.015L93.7336 101.028L93.7466 101.041L103.05 110.346L112.362 101.034L112.366 101.029L112.358 101.025"/>
</mask>
<path d="M112.357 101.025H112.361L103.05 91.7129L96.1679 98.5932L95.3773 99.3842L93.7466 101.015L93.7336 101.028L93.7466 101.041L103.05 110.346L112.362 101.034L112.366 101.029L112.358 101.025" fill="#EDCD49"/>
<path d="M112.361 101.025V103.025H117.189L113.775 99.6105L112.361 101.025ZM103.05 91.7129L104.464 90.2987L103.05 88.8846L101.636 90.2985L103.05 91.7129ZM96.1679 98.5932L94.7539 97.1788L94.7534 97.1793L96.1679 98.5932ZM95.3773 99.3842L96.7917 100.798L96.7918 100.798L95.3773 99.3842ZM93.7466 101.015L95.1426 102.447L95.1519 102.438L95.161 102.429L93.7466 101.015ZM93.7336 101.028L92.3377 99.5956L90.9048 100.992L92.3021 102.424L93.7336 101.028ZM93.7466 101.041L92.3151 102.438L92.3236 102.447L92.3323 102.455L93.7466 101.041ZM103.05 110.346L101.636 111.76L103.05 113.175L104.464 111.76L103.05 110.346ZM112.362 101.034L113.776 102.449L113.823 102.401L113.867 102.351L112.362 101.034ZM112.366 101.029L113.872 102.346L115.524 100.458L113.315 99.2683L112.366 101.029ZM112.357 103.025H112.361V99.0246H112.357V103.025ZM113.775 99.6105L104.464 90.2987L101.636 93.1271L110.947 102.439L113.775 99.6105ZM101.636 90.2985L94.7539 97.1788L97.582 100.008L104.464 93.1273L101.636 90.2985ZM94.7534 97.1793L93.9628 97.9703L96.7918 100.798L97.5824 100.007L94.7534 97.1793ZM93.9629 97.9701L92.3323 99.6011L95.161 102.429L96.7917 100.798L93.9629 97.9701ZM92.3507 99.583L92.3377 99.5956L95.1296 102.46L95.1426 102.447L92.3507 99.583ZM92.3021 102.424L92.3151 102.438L95.1782 99.6446L95.1652 99.6312L92.3021 102.424ZM92.3323 102.455L101.636 111.76L104.464 108.932L95.161 99.6271L92.3323 102.455ZM104.464 111.76L113.776 102.449L110.948 99.6202L101.636 108.932L104.464 111.76ZM113.867 102.351L113.872 102.346L110.861 99.7122L110.857 99.7174L113.867 102.351ZM113.315 99.2683L113.306 99.2637L111.41 102.786L111.418 102.79L113.315 99.2683Z" fill="#F3BA2F" mask="url(#path-6-inside-1)"/>
</svg>
