<svg width="396" height="97" viewBox="0 0 396 97" fill="none" xmlns="http://www.w3.org/2000/svg">
<path d="M28.2852 66.5186L31.0307 75.0949L54.3126 94.8122C54.3126 94.8122 65.0888 94.8122 71.9937 94.8122" stroke="#C4BDD4" stroke-width="2.90923"/>
<path d="M376.771 66.5186L374.025 75.0949L350.744 94.8122C350.744 94.8122 339.967 94.8122 333.062 94.8122" stroke="#C4BDD4" stroke-width="2.90923"/>
<path d="M268.284 24.0226L268.015 24.2477H267.664H127.062H126.712L126.443 24.0226L114.906 14.3635H9.46744L2.96344 18.7937L1.00537 29.5172L22.6351 74.8574L45.4875 94.0354H349.239L372.097 74.8529L394.186 30.1579L393.467 19.0819L385.298 14.3635H279.82L268.284 24.0226Z" fill="#231B36" stroke="#C4BDD4" stroke-width="1.93007"/>
<path d="M377.759 51.998L373.586 60.5744L350.304 80.2917C350.304 80.2917 339.528 80.2917 332.623 80.2917" stroke="#C4BDD4" stroke-width="2.90923"/>
<path d="M17.8462 51.998L22.0194 60.5744L45.3013 80.2917C45.3013 80.2917 56.0775 80.2917 62.9824 80.2917" stroke="#C4BDD4" stroke-width="2.90923"/>
<path opacity="0.8" d="M127.382 8.08281L127.614 8.22583H127.887H268.489H268.762L268.995 8.08281L280.568 0.965036H385.747L393.281 18.3839L372.919 59.8244L350.059 79.3722H46.3177L23.4578 59.8244L3.09578 18.3839L10.6292 0.965036H115.809L127.382 8.08281Z" fill="#1B1429" stroke="#C4BDD4" stroke-width="1.93007"/>
<path d="M125.25 39.33C125.25 37.2 123.51 35.43 121.35 35.43H103.65V57H106.89V49.23C107.1 49.26 107.31 49.29 107.55 49.29H114.93L121.41 57H125.25V56.55L119.16 49.29H121.35C123.51 49.29 125.25 47.52 125.25 45.39V39.33ZM107.55 46.05C107.19 46.05 106.89 45.75 106.89 45.39V39.33C106.89 38.97 107.19 38.67 107.55 38.67H121.35C121.71 38.67 122.01 38.97 122.01 39.33V45.39C122.01 45.75 121.71 46.05 121.35 46.05H107.55ZM148.296 35.4H128.496V57H148.296V53.76H131.736V47.82H145.056V44.58H131.736V38.64H148.296V35.4ZM173.005 39.3C173.005 37.14 171.265 35.4 169.105 35.4H155.305C153.145 35.4 151.405 37.14 151.405 39.3V53.1C151.405 55.26 153.145 57 155.305 57H169.105C171.265 57 173.005 55.26 173.005 53.1V45.18H164.665V48.42H169.765V53.1C169.765 53.46 169.465 53.76 169.105 53.76H155.305C154.945 53.76 154.645 53.46 154.645 53.1V39.3C154.645 38.94 154.945 38.64 155.305 38.64H169.105C169.465 38.64 169.765 38.94 169.765 39.3V40.59H173.005V39.3ZM176.337 57H179.577V35.4H176.337V57ZM204.349 39.3C204.349 37.14 202.609 35.4 200.449 35.4H186.649C184.489 35.4 182.749 37.14 182.749 39.3V43.92C182.749 46.08 184.489 47.82 186.649 47.82H200.449C200.809 47.82 201.109 48.12 201.109 48.48V53.1C201.109 53.46 200.809 53.76 200.449 53.76H186.649C186.289 53.76 185.989 53.46 185.989 53.1V51.84H182.749V53.1C182.749 55.26 184.489 57 186.649 57H200.449C202.609 57 204.349 55.26 204.349 53.1V48.48C204.349 46.32 202.609 44.58 200.449 44.58H186.649C186.289 44.58 185.989 44.28 185.989 43.92V39.3C185.989 38.94 186.289 38.64 186.649 38.64H200.449C200.809 38.64 201.109 38.94 201.109 39.3V40.56H204.349V39.3ZM206.487 35.4V38.64H215.667V57H218.907V38.64H228.087V35.4H206.487ZM250.19 35.4H230.39V57H250.19V53.76H233.63V47.82H246.95V44.58H233.63V38.64H250.19V35.4ZM274.869 39.33C274.869 37.2 273.129 35.43 270.969 35.43H253.269V57H256.509V49.23C256.719 49.26 256.929 49.29 257.169 49.29H264.549L271.029 57H274.869V56.55L268.779 49.29H270.969C273.129 49.29 274.869 47.52 274.869 45.39V39.33ZM257.169 46.05C256.809 46.05 256.509 45.75 256.509 45.39V39.33C256.509 38.97 256.809 38.67 257.169 38.67H270.969C271.329 38.67 271.629 38.97 271.629 39.33V45.39C271.629 45.75 271.329 46.05 270.969 46.05H257.169Z" fill="#F3F3F3"/>
</svg>
