<svg width="1166" height="101" viewBox="0 0 1166 101" fill="none" xmlns="http://www.w3.org/2000/svg">
<path d="M2 1C1.44771 1 1 1.44771 1 2V82.6885C1 82.9487 1.10142 83.1986 1.28272 83.3853L17.1282 99.6968C17.3165 99.8906 17.5752 100 17.8455 100H1164C1164.55 100 1165 99.5523 1165 99V16.25C1165 15.6977 1164.55 15.25 1164 15.25H1117.07C1116.51 15.25 1115.96 15.0942 1115.49 14.8002L1116.02 13.9501L1115.49 14.8002L1093.46 1.14995L1093.46 1.14989M2 1L1093.46 1.14989M2 1H1092.93C1093.12 1 1093.3 1.05189 1093.46 1.14989M2 1L1093.46 1.14989" fill="#262399" fill-opacity="0.4"/>
<path d="M2 1C1.44771 1 1 1.44771 1 2V82.6885C1 82.9487 1.10142 83.1986 1.28272 83.3853L17.1282 99.6968C17.3165 99.8906 17.5752 100 17.8455 100H1164C1164.55 100 1165 99.5523 1165 99V16.25C1165 15.6977 1164.55 15.25 1164 15.25H1117.07C1116.51 15.25 1115.96 15.0942 1115.49 14.8002L1116.02 13.9501L1115.49 14.8002L1093.46 1.14995L1093.46 1.14989M2 1L1093.46 1.14989M2 1H1092.93C1093.12 1 1093.3 1.05189 1093.46 1.14989M2 1L1093.46 1.14989" fill="url(#paint0_linear)" fill-opacity="0.3"/>
<path d="M2 1C1.44771 1 1 1.44771 1 2V82.6885C1 82.9487 1.10142 83.1986 1.28272 83.3853L17.1282 99.6968C17.3165 99.8906 17.5752 100 17.8455 100H1164C1164.55 100 1165 99.5523 1165 99V16.25C1165 15.6977 1164.55 15.25 1164 15.25H1117.07C1116.51 15.25 1115.96 15.0942 1115.49 14.8002L1116.02 13.9501L1115.49 14.8002L1093.46 1.14995L1093.46 1.14989M2 1L1093.46 1.14989M2 1H1092.93C1093.12 1 1093.3 1.05189 1093.46 1.14989M2 1L1093.46 1.14989" stroke="#262399" stroke-width="2"/>
<path d="M2 1C1.44771 1 1 1.44771 1 2V82.6885C1 82.9487 1.10142 83.1986 1.28272 83.3853L17.1282 99.6968C17.3165 99.8906 17.5752 100 17.8455 100H1164C1164.55 100 1165 99.5523 1165 99V16.25C1165 15.6977 1164.55 15.25 1164 15.25H1117.07C1116.51 15.25 1115.96 15.0942 1115.49 14.8002L1116.02 13.9501L1115.49 14.8002L1093.46 1.14995L1093.46 1.14989M2 1L1093.46 1.14989M2 1H1092.93C1093.12 1 1093.3 1.05189 1093.46 1.14989M2 1L1093.46 1.14989" stroke="url(#paint1_linear)" stroke-opacity="0.5" stroke-width="2"/>
<defs>
<linearGradient id="paint0_linear" x1="-1.29516e-05" y1="-39" x2="48.2007" y2="239.517" gradientUnits="userSpaceOnUse">
<stop stop-color="#C165C2"/>
<stop offset="1" stop-color="#FA6E6E" stop-opacity="0"/>
</linearGradient>
<linearGradient id="paint1_linear" x1="172.139" y1="8.70406" x2="175.2" y2="112.972" gradientUnits="userSpaceOnUse">
<stop stop-color="#C165C2"/>
<stop offset="1" stop-color="#FA6E6E" stop-opacity="0"/>
</linearGradient>
</defs>
</svg>
