<svg width="218" height="208" viewBox="0 0 218 208" fill="none" xmlns="http://www.w3.org/2000/svg">
<g filter="url(#filter0_d)">
<path d="M43.1261 143.3C43.1261 141.14 41.3861 139.4 39.2261 139.4H25.4261C23.2661 139.4 21.5261 141.14 21.5261 143.3V147.92C21.5261 150.08 23.2661 151.82 25.4261 151.82H39.2261C39.5861 151.82 39.8861 152.12 39.8861 152.48V157.1C39.8861 157.46 39.5861 157.76 39.2261 157.76H25.4261C25.0661 157.76 24.7661 157.46 24.7661 157.1V155.84H21.5261V157.1C21.5261 159.26 23.2661 161 25.4261 161H39.2261C41.3861 161 43.1261 159.26 43.1261 157.1V152.48C43.1261 150.32 41.3861 148.58 39.2261 148.58H25.4261C25.0661 148.58 24.7661 148.28 24.7661 147.92V143.3C24.7661 142.94 25.0661 142.64 25.4261 142.64H39.2261C39.5861 142.64 39.8861 142.94 39.8861 143.3V144.56H43.1261V143.3ZM56.1841 139.4C54.0241 139.4 52.2841 141.14 52.2841 143.3V157.1C52.2841 159.26 54.0241 161 56.1841 161H69.9841C72.1441 161 73.8841 159.26 73.8841 157.1V143.3C73.8841 141.14 72.1441 139.4 69.9841 139.4H56.1841ZM56.1841 157.76C55.8241 157.76 55.5241 157.46 55.5241 157.1V143.3C55.5241 142.94 55.8241 142.64 56.1841 142.64H69.9841C70.3441 142.64 70.6441 142.94 70.6441 143.3V157.1C70.6441 157.46 70.3441 157.76 69.9841 157.76H56.1841ZM83.2178 161H104.818V157.76H86.4578V139.37H83.2178V161ZM116.527 139.4C114.367 139.4 112.627 141.14 112.627 143.3V161H115.867V153.44H130.987V161H134.227V143.3C134.227 141.14 132.487 139.4 130.327 139.4H116.527ZM115.867 150.2V143.3C115.867 142.94 116.167 142.64 116.527 142.64H130.327C130.687 142.64 130.987 142.94 130.987 143.3V150.2H115.867ZM162.005 156.68L147.485 139.4H143.645V161H146.885V143.72L161.405 161H165.245V139.4H162.005V156.68ZM178.566 139.4C176.406 139.4 174.666 141.14 174.666 143.3V161H177.906V153.44H193.026V161H196.266V143.3C196.266 141.14 194.526 139.4 192.366 139.4H178.566ZM177.906 150.2V143.3C177.906 142.94 178.206 142.64 178.566 142.64H192.366C192.726 142.64 193.026 142.94 193.026 143.3V150.2H177.906Z" fill="url(#paint0_linear)"/>
</g>
<g filter="url(#filter1_d)">
<path d="M40.3023 188.272C40.1103 188.272 39.9503 188.112 39.9503 187.92V182.8C39.9503 182.608 40.1103 182.448 40.3023 182.448H47.6303V180.72H40.3023C39.1503 180.72 38.2223 181.648 38.2223 182.8V187.92C38.2223 189.072 39.1503 190 40.3023 190H47.6623V188.272H40.3023ZM54.6273 180.72C53.4753 180.72 52.5473 181.648 52.5473 182.8V187.92C52.5473 189.072 53.4753 190 54.6273 190H59.9073C61.0593 190 61.9873 189.072 61.9873 187.92V182.8C61.9873 181.648 61.0593 180.72 59.9073 180.72H54.6273ZM59.9073 182.448C60.0993 182.448 60.2593 182.608 60.2593 182.8V187.92C60.2593 188.112 60.0993 188.272 59.9073 188.272H54.6273C54.4353 188.272 54.2753 188.112 54.2753 187.92V182.8C54.2753 182.608 54.4353 182.448 54.6273 182.448H59.9073ZM78.7294 180.72H66.8734V190H68.6014V182.8C68.6014 182.608 68.7614 182.448 68.9534 182.448H72.6334C72.8254 182.448 72.9854 182.608 72.9854 182.8V190H74.7134V182.8C74.7134 182.608 74.8734 182.448 75.0654 182.448H78.7294C78.9374 182.448 79.0974 182.608 79.0974 182.8V190H80.8094V182.8C80.8094 181.648 79.8814 180.72 78.7294 180.72ZM85.682 190H87.41V180.72H85.682V190ZM85.682 177.68V179.408H87.41V177.68H85.682ZM99.3678 180.72H92.0078V190H93.7358V182.8C93.7358 182.608 93.8958 182.448 94.0878 182.448H99.3678C99.5598 182.448 99.7198 182.608 99.7198 182.8V190H101.448V182.8C101.448 181.648 100.52 180.72 99.3678 180.72ZM115.58 186.464V182.8C115.58 181.648 114.652 180.72 113.5 180.72H108.22C107.068 180.72 106.14 181.648 106.14 182.8V187.92C106.14 189.072 107.068 190 108.22 190H113.852V191.6C113.852 191.792 113.692 191.952 113.5 191.952H107.772V193.68H113.5C114.652 193.68 115.58 192.752 115.58 191.6V186.48V186.464ZM108.22 188.272C108.028 188.272 107.868 188.112 107.868 187.92V182.8C107.868 182.608 108.028 182.448 108.22 182.448H113.5C113.692 182.448 113.852 182.608 113.852 182.8V187.92C113.852 188.112 113.692 188.272 113.5 188.272H108.22ZM137.655 182.8C137.655 181.648 136.727 180.72 135.575 180.72H130.295C129.143 180.72 128.215 181.648 128.215 182.8V184.144C128.215 185.296 129.143 186.224 130.295 186.224H135.575C135.767 186.224 135.927 186.384 135.927 186.576V187.92C135.927 188.112 135.767 188.272 135.575 188.272H130.295C130.103 188.272 129.943 188.112 129.943 187.92V187.568H128.215V187.92C128.215 189.072 129.143 190 130.295 190H135.575C136.727 190 137.655 189.072 137.655 187.92V186.576C137.655 185.424 136.727 184.496 135.575 184.496H130.295C130.103 184.496 129.943 184.336 129.943 184.144V182.8C129.943 182.608 130.103 182.448 130.295 182.448H135.575C135.767 182.448 135.927 182.608 135.927 182.8V183.152H137.655V182.8ZM144.512 180.72C143.36 180.72 142.432 181.648 142.432 182.8V187.92C142.432 189.072 143.36 190 144.512 190H149.792C150.944 190 151.872 189.072 151.872 187.92V182.8C151.872 181.648 150.944 180.72 149.792 180.72H144.512ZM149.792 182.448C149.984 182.448 150.144 182.608 150.144 182.8V187.92C150.144 188.112 149.984 188.272 149.792 188.272H144.512C144.32 188.272 144.16 188.112 144.16 187.92V182.8C144.16 182.608 144.32 182.448 144.512 182.448H149.792ZM158.305 180.72C157.153 180.72 156.225 181.648 156.225 182.8V187.92C156.225 189.072 157.153 190 158.305 190H163.585C164.737 190 165.665 189.072 165.665 187.92V182.8C165.665 181.648 164.737 180.72 163.585 180.72H158.305ZM163.585 182.448C163.777 182.448 163.937 182.608 163.937 182.8V187.92C163.937 188.112 163.777 188.272 163.585 188.272H158.305C158.113 188.272 157.953 188.112 157.953 187.92V182.8C157.953 182.608 158.113 182.448 158.305 182.448H163.585ZM177.677 180.72H170.317V190H172.045V182.8C172.045 182.608 172.205 182.448 172.397 182.448H177.677C177.869 182.448 178.029 182.608 178.029 182.8V190H179.757V182.8C179.757 181.648 178.829 180.72 177.677 180.72Z" fill="url(#paint1_linear)"/>
</g>
<path d="M65.8635 81.2237C66.2888 80.7966 66.8756 80.5459 67.4994 80.5459H172.836C172.873 80.5459 172.893 80.5511 172.901 80.5538C172.91 80.5566 172.917 80.5602 172.923 80.565C172.939 80.5758 172.964 80.6015 172.982 80.6462C173.001 80.6908 173.002 80.7288 172.998 80.7506C172.996 80.7605 172.993 80.7695 172.988 80.7795C172.983 80.7889 172.972 80.808 172.945 80.835L152.137 101.736C151.712 102.163 151.125 102.414 150.501 102.414H45.1644C45.1277 102.414 45.1078 102.408 45.0995 102.406C45.0906 102.403 45.0837 102.399 45.0769 102.394C45.0616 102.384 45.0362 102.358 45.0178 102.313C44.9994 102.269 44.9985 102.231 45.0023 102.209C45.004 102.199 45.0069 102.19 45.0121 102.18C45.0169 102.171 45.0283 102.151 45.0551 102.124L65.8635 81.2237Z" stroke="url(#paint2_linear)" stroke-width="4"/>
<path d="M45.0546 24.0883L65.8467 3.204C66.3271 2.74669 66.928 2.50977 67.4989 2.50977H172.835C172.872 2.50977 172.892 2.51501 172.9 2.51767C172.909 2.52051 172.916 2.52403 172.923 2.52884C172.938 2.53967 172.964 2.56538 172.982 2.61003C173 2.65467 173.001 2.69264 172.997 2.71448C172.996 2.72432 172.993 2.73339 172.988 2.74336C172.983 2.75279 172.972 2.77191 172.945 2.79882L152.136 23.6996C151.711 24.1267 151.124 24.3774 150.5 24.3774H45.1639C45.1272 24.3774 45.1073 24.3721 45.099 24.3695C45.0901 24.3666 45.0832 24.3631 45.0765 24.3583C45.0611 24.3475 45.0358 24.3218 45.0173 24.2771C44.9989 24.2325 44.9981 24.1945 45.0018 24.1727C45.0035 24.1628 45.0064 24.1538 45.0116 24.1438C45.0164 24.1344 45.0278 24.1152 45.0546 24.0883Z" stroke="url(#paint3_linear)" stroke-width="4"/>
<path d="M150.501 41.2773C151.125 41.2773 151.712 41.528 152.137 41.9551L172.945 62.8559C172.972 62.8828 172.983 62.9019 172.988 62.9114C172.993 62.9213 172.996 62.9304 172.998 62.9402C173.002 62.9621 173.001 63.0001 172.982 63.0447C172.964 63.0893 172.939 63.115 172.923 63.1259C172.917 63.1307 172.91 63.1342 172.901 63.137C172.893 63.1397 172.873 63.145 172.836 63.145H67.4994C66.8756 63.145 66.2888 62.8943 65.8635 62.4672L45.0551 41.5664C45.0283 41.5395 45.0169 41.5204 45.0121 41.5109C45.0069 41.501 45.004 41.4919 45.0023 41.4821C44.9985 41.4602 44.9994 41.4222 45.0178 41.3776C45.0362 41.333 45.0616 41.3073 45.0769 41.2964C45.0837 41.2916 45.0906 41.2881 45.0995 41.2852C45.1078 41.2826 45.1277 41.2773 45.1644 41.2773H150.501Z" stroke="url(#paint4_linear)" stroke-width="4"/>
<defs>
<filter id="filter0_d" x="7.52588" y="125.37" width="202.74" height="49.63" filterUnits="userSpaceOnUse" color-interpolation-filters="sRGB">
<feFlood flood-opacity="0" result="BackgroundImageFix"/>
<feColorMatrix in="SourceAlpha" type="matrix" values="0 0 0 0 0 0 0 0 0 0 0 0 0 0 0 0 0 0 127 0" result="hardAlpha"/>
<feOffset/>
<feGaussianBlur stdDeviation="7"/>
<feColorMatrix type="matrix" values="0 0 0 0 0.568579 0 0 0 0 0.386314 0 0 0 0 1 0 0 0 0.3 0"/>
<feBlend mode="normal" in2="BackgroundImageFix" result="effect1_dropShadow"/>
<feBlend mode="normal" in="SourceGraphic" in2="effect1_dropShadow" result="shape"/>
</filter>
<filter id="filter1_d" x="24.2222" y="163.68" width="169.535" height="44" filterUnits="userSpaceOnUse" color-interpolation-filters="sRGB">
<feFlood flood-opacity="0" result="BackgroundImageFix"/>
<feColorMatrix in="SourceAlpha" type="matrix" values="0 0 0 0 0 0 0 0 0 0 0 0 0 0 0 0 0 0 127 0" result="hardAlpha"/>
<feOffset/>
<feGaussianBlur stdDeviation="7"/>
<feColorMatrix type="matrix" values="0 0 0 0 0.568579 0 0 0 0 0.386314 0 0 0 0 1 0 0 0 0.3 0"/>
<feBlend mode="normal" in2="BackgroundImageFix" result="effect1_dropShadow"/>
<feBlend mode="normal" in="SourceGraphic" in2="effect1_dropShadow" result="shape"/>
</filter>
<linearGradient id="paint0_linear" x1="171.318" y1="68.8036" x2="104.193" y2="251.082" gradientUnits="userSpaceOnUse">
<stop stop-color="#00FFA3"/>
<stop offset="1" stop-color="#DC1FFF"/>
</linearGradient>
<linearGradient id="paint1_linear" x1="171.318" y1="141.095" x2="150.441" y2="247.394" gradientUnits="userSpaceOnUse">
<stop stop-color="#00FFA3"/>
<stop offset="1" stop-color="#DC1FFF"/>
</linearGradient>
<linearGradient id="paint2_linear" x1="146.734" y1="18.881" x2="73.3237" y2="158.869" gradientUnits="userSpaceOnUse">
<stop stop-color="#00FFA3"/>
<stop offset="1" stop-color="#DC1FFF"/>
</linearGradient>
<linearGradient id="paint3_linear" x1="146.733" y1="-59.1551" x2="73.3233" y2="80.8331" gradientUnits="userSpaceOnUse">
<stop stop-color="#00FFA3"/>
<stop offset="1" stop-color="#DC1FFF"/>
</linearGradient>
<linearGradient id="paint4_linear" x1="146.734" y1="-20.3875" x2="73.3238" y2="119.601" gradientUnits="userSpaceOnUse">
<stop stop-color="#00FFA3"/>
<stop offset="1" stop-color="#DC1FFF"/>
</linearGradient>
</defs>
</svg>
