<svg width="517" height="533" viewBox="0 0 517 533" fill="none" xmlns="http://www.w3.org/2000/svg">
<mask id="path-1-inside-1" fill="white">
<path fill-rule="evenodd" clip-rule="evenodd" d="M330.839 90.5555L286.645 46.3614L226.274 62.5376L210.098 122.908L254.292 167.102L314.663 150.926L330.839 90.5555ZM405.195 79.162L449.389 123.356L433.213 183.727L372.842 199.903L328.648 155.709L344.824 95.3382L405.195 79.162ZM362.843 206.8L318.649 162.606L258.279 178.782L242.102 239.152L286.296 283.346L346.667 267.17L362.843 206.8ZM155.746 261.048L111.552 216.853L51.1815 233.03L35.0053 293.4L79.1995 337.594L139.57 321.418L155.746 261.048ZM189.682 377.809L145.488 333.615L85.1176 349.791L68.9414 410.162L113.136 454.356L173.506 438.18L189.682 377.809ZM264.297 365.45L308.491 409.644L292.315 470.015L231.944 486.191L187.75 441.997L203.927 381.626L264.297 365.45ZM199.84 130.771L244.034 174.965L227.858 235.335L167.488 251.512L123.293 207.317L139.47 146.947L199.84 130.771ZM481.652 238.635L437.458 194.44L377.087 210.617L360.911 270.987L405.105 315.181L465.476 299.005L481.652 238.635ZM230.361 248.688L274.555 292.882L258.379 353.253L198.008 369.429L153.814 325.235L169.99 264.864L230.361 248.688ZM393.364 324.717L349.17 280.523L288.799 296.699L272.623 357.069L316.817 401.264L377.188 385.087L393.364 324.717Z"/>
</mask>
<path d="M286.645 46.3614L287.352 45.6543L286.943 45.246L286.386 45.3954L286.645 46.3614ZM330.839 90.5555L331.805 90.8144L331.954 90.2567L331.546 89.8484L330.839 90.5555ZM226.274 62.5376L226.015 61.5716L225.458 61.7211L225.308 62.2787L226.274 62.5376ZM210.098 122.908L209.132 122.649L208.983 123.207L209.391 123.615L210.098 122.908ZM254.292 167.102L253.585 167.809L253.993 168.217L254.551 168.068L254.292 167.102ZM314.663 150.926L314.921 151.892L315.479 151.742L315.628 151.185L314.663 150.926ZM449.389 123.356L450.355 123.615L450.504 123.057L450.096 122.649L449.389 123.356ZM405.195 79.162L405.902 78.4549L405.493 78.0467L404.936 78.1961L405.195 79.162ZM433.213 183.727L433.471 184.693L434.029 184.543L434.179 183.985L433.213 183.727ZM372.842 199.903L372.135 200.61L372.543 201.018L373.101 200.869L372.842 199.903ZM328.648 155.709L327.682 155.45L327.533 156.007L327.941 156.416L328.648 155.709ZM344.824 95.3382L344.565 94.3723L344.008 94.5217L343.858 95.0794L344.824 95.3382ZM318.649 162.606L319.356 161.899L318.948 161.49L318.39 161.64L318.649 162.606ZM362.843 206.8L363.809 207.059L363.958 206.501L363.55 206.093L362.843 206.8ZM258.279 178.782L258.02 177.816L257.462 177.965L257.313 178.523L258.279 178.782ZM242.102 239.152L241.136 238.893L240.987 239.451L241.395 239.859L242.102 239.152ZM286.296 283.346L285.589 284.053L285.998 284.462L286.555 284.312L286.296 283.346ZM346.667 267.17L346.926 268.136L347.483 267.987L347.633 267.429L346.667 267.17ZM111.552 216.853L112.259 216.146L111.851 215.738L111.293 215.887L111.552 216.853ZM155.746 261.048L156.712 261.306L156.861 260.749L156.453 260.34L155.746 261.048ZM51.1815 233.03L50.9227 232.064L50.365 232.213L50.2156 232.771L51.1815 233.03ZM35.0053 293.4L34.0394 293.141L33.8899 293.699L34.2982 294.107L35.0053 293.4ZM79.1995 337.594L78.4924 338.301L78.9006 338.709L79.4583 338.56L79.1995 337.594ZM139.57 321.418L139.829 322.384L140.386 322.234L140.536 321.677L139.57 321.418ZM145.488 333.615L146.195 332.908L145.787 332.5L145.229 332.649L145.488 333.615ZM189.682 377.809L190.648 378.068L190.798 377.511L190.389 377.102L189.682 377.809ZM85.1176 349.791L84.8588 348.826L84.3011 348.975L84.1517 349.533L85.1176 349.791ZM68.9414 410.162L67.9755 409.903L67.8261 410.461L68.2343 410.869L68.9414 410.162ZM113.136 454.356L112.429 455.063L112.837 455.471L113.394 455.322L113.136 454.356ZM173.506 438.18L173.765 439.146L174.322 438.996L174.472 438.439L173.506 438.18ZM308.491 409.644L309.457 409.903L309.606 409.345L309.198 408.937L308.491 409.644ZM264.297 365.45L265.004 364.743L264.596 364.335L264.038 364.484L264.297 365.45ZM292.315 470.015L292.574 470.981L293.131 470.831L293.281 470.273L292.315 470.015ZM231.944 486.191L231.237 486.898L231.646 487.306L232.203 487.157L231.944 486.191ZM187.75 441.997L186.784 441.738L186.635 442.295L187.043 442.704L187.75 441.997ZM203.927 381.626L203.668 380.66L203.11 380.81L202.961 381.367L203.927 381.626ZM244.034 174.965L245 175.224L245.15 174.666L244.741 174.258L244.034 174.965ZM199.84 130.771L200.547 130.064L200.139 129.656L199.581 129.805L199.84 130.771ZM227.858 235.335L228.117 236.301L228.674 236.152L228.824 235.594L227.858 235.335ZM167.488 251.512L166.781 252.219L167.189 252.627L167.746 252.478L167.488 251.512ZM123.293 207.317L122.328 207.059L122.178 207.616L122.586 208.025L123.293 207.317ZM139.47 146.947L139.211 145.981L138.653 146.131L138.504 146.688L139.47 146.947ZM437.458 194.44L438.165 193.733L437.757 193.325L437.199 193.474L437.458 194.44ZM481.652 238.635L482.618 238.893L482.767 238.336L482.359 237.927L481.652 238.635ZM377.087 210.617L376.829 209.651L376.271 209.8L376.121 210.358L377.087 210.617ZM360.911 270.987L359.945 270.728L359.796 271.286L360.204 271.694L360.911 270.987ZM405.105 315.181L404.398 315.888L404.807 316.296L405.364 316.147L405.105 315.181ZM465.476 299.005L465.735 299.971L466.292 299.821L466.442 299.264L465.476 299.005ZM274.555 292.882L275.521 293.141L275.67 292.583L275.262 292.175L274.555 292.882ZM230.361 248.688L231.068 247.981L230.66 247.573L230.102 247.722L230.361 248.688ZM258.379 353.253L258.638 354.219L259.195 354.069L259.345 353.512L258.379 353.253ZM198.008 369.429L197.301 370.136L197.709 370.544L198.267 370.395L198.008 369.429ZM153.814 325.235L152.848 324.976L152.699 325.534L153.107 325.942L153.814 325.235ZM169.99 264.864L169.732 263.898L169.174 264.048L169.024 264.606L169.99 264.864ZM349.17 280.523L349.877 279.816L349.468 279.408L348.911 279.557L349.17 280.523ZM393.364 324.717L394.33 324.976L394.479 324.418L394.071 324.01L393.364 324.717ZM288.799 296.699L288.54 295.733L287.983 295.883L287.833 296.44L288.799 296.699ZM272.623 357.069L271.657 356.811L271.508 357.368L271.916 357.777L272.623 357.069ZM316.817 401.264L316.11 401.971L316.518 402.379L317.076 402.23L316.817 401.264ZM377.188 385.087L377.446 386.053L378.004 385.904L378.154 385.346L377.188 385.087ZM285.937 47.0685L330.132 91.2627L331.546 89.8484L287.352 45.6543L285.937 47.0685ZM226.533 63.5035L286.903 47.3273L286.386 45.3954L226.015 61.5716L226.533 63.5035ZM211.064 123.167L227.24 62.7964L225.308 62.2787L209.132 122.649L211.064 123.167ZM254.999 166.395L210.805 122.201L209.391 123.615L253.585 167.809L254.999 166.395ZM314.404 149.96L254.033 166.136L254.551 168.068L314.921 151.892L314.404 149.96ZM329.873 90.2967L313.697 150.667L315.628 151.185L331.805 90.8144L329.873 90.2967ZM450.096 122.649L405.902 78.4549L404.488 79.8691L448.682 124.063L450.096 122.649ZM434.179 183.985L450.355 123.615L448.423 123.097L432.247 183.468L434.179 183.985ZM373.101 200.869L433.471 184.693L432.954 182.761L372.583 198.937L373.101 200.869ZM327.941 156.416L372.135 200.61L373.549 199.196L329.355 155.001L327.941 156.416ZM343.858 95.0794L327.682 155.45L329.614 155.967L345.79 95.597L343.858 95.0794ZM404.936 78.1961L344.565 94.3723L345.083 96.3042L405.453 80.128L404.936 78.1961ZM317.942 163.313L362.136 207.507L363.55 206.093L319.356 161.899L317.942 163.313ZM258.537 179.748L318.908 163.572L318.39 161.64L258.02 177.816L258.537 179.748ZM243.068 239.411L259.244 179.041L257.313 178.523L241.136 238.893L243.068 239.411ZM287.004 282.639L242.809 238.445L241.395 239.859L285.589 284.053L287.004 282.639ZM346.408 266.204L286.038 282.38L286.555 284.312L346.926 268.136L346.408 266.204ZM361.877 206.541L345.701 266.911L347.633 267.429L363.809 207.059L361.877 206.541ZM110.845 217.561L155.039 261.755L156.453 260.34L112.259 216.146L110.845 217.561ZM51.4403 233.996L111.811 217.819L111.293 215.887L50.9227 232.064L51.4403 233.996ZM35.9712 293.659L52.1474 233.288L50.2156 232.771L34.0394 293.141L35.9712 293.659ZM79.9066 336.887L35.7124 292.693L34.2982 294.107L78.4924 338.301L79.9066 336.887ZM139.311 320.452L78.9407 336.628L79.4583 338.56L139.829 322.384L139.311 320.452ZM154.78 260.789L138.604 321.159L140.536 321.677L156.712 261.306L154.78 260.789ZM144.781 334.322L188.975 378.517L190.389 377.102L146.195 332.908L144.781 334.322ZM85.3765 350.757L145.747 334.581L145.229 332.649L84.8588 348.826L85.3765 350.757ZM69.9074 410.421L86.0836 350.05L84.1517 349.533L67.9755 409.903L69.9074 410.421ZM113.843 453.649L69.6486 409.455L68.2343 410.869L112.429 455.063L113.843 453.649ZM173.247 437.214L112.877 453.39L113.394 455.322L173.765 439.146L173.247 437.214ZM188.716 377.551L172.54 437.921L174.472 438.439L190.648 378.068L188.716 377.551ZM309.198 408.937L265.004 364.743L263.59 366.157L307.784 410.351L309.198 408.937ZM293.281 470.273L309.457 409.903L307.525 409.385L291.349 469.756L293.281 470.273ZM232.203 487.157L292.574 470.981L292.056 469.049L231.686 485.225L232.203 487.157ZM187.043 442.704L231.237 486.898L232.652 485.484L188.457 441.289L187.043 442.704ZM202.961 381.367L186.784 441.738L188.716 442.255L204.892 381.885L202.961 381.367ZM264.038 364.484L203.668 380.66L204.185 382.592L264.556 366.416L264.038 364.484ZM244.741 174.258L200.547 130.064L199.133 131.478L243.327 175.672L244.741 174.258ZM228.824 235.594L245 175.224L243.068 174.706L226.892 235.077L228.824 235.594ZM167.746 252.478L228.117 236.301L227.599 234.369L167.229 250.546L167.746 252.478ZM122.586 208.025L166.781 252.219L168.195 250.804L124.001 206.61L122.586 208.025ZM138.504 146.688L122.328 207.059L124.259 207.576L140.436 147.206L138.504 146.688ZM199.581 129.805L139.211 145.981L139.728 147.913L200.099 131.737L199.581 129.805ZM436.751 195.147L480.945 239.342L482.359 237.927L438.165 193.733L436.751 195.147ZM377.346 211.582L437.717 195.406L437.199 193.474L376.829 209.651L377.346 211.582ZM361.877 271.246L378.053 210.875L376.121 210.358L359.945 270.728L361.877 271.246ZM405.812 314.474L361.618 270.28L360.204 271.694L404.398 315.888L405.812 314.474ZM465.217 298.039L404.847 314.215L405.364 316.147L465.735 299.971L465.217 298.039ZM480.686 238.376L464.51 298.746L466.442 299.264L482.618 238.893L480.686 238.376ZM275.262 292.175L231.068 247.981L229.654 249.395L273.848 293.589L275.262 292.175ZM259.345 353.512L275.521 293.141L273.589 292.624L257.413 352.994L259.345 353.512ZM198.267 370.395L258.638 354.219L258.12 352.287L197.75 368.463L198.267 370.395ZM153.107 325.942L197.301 370.136L198.715 368.722L154.521 324.528L153.107 325.942ZM169.024 264.606L152.848 324.976L154.78 325.494L170.956 265.123L169.024 264.606ZM230.102 247.722L169.732 263.898L170.249 265.83L230.62 249.654L230.102 247.722ZM348.462 281.23L392.657 325.424L394.071 324.01L349.877 279.816L348.462 281.23ZM289.058 297.665L349.428 281.489L348.911 279.557L288.54 295.733L289.058 297.665ZM273.589 357.328L289.765 296.958L287.833 296.44L271.657 356.811L273.589 357.328ZM317.524 400.557L273.33 356.362L271.916 357.777L316.11 401.971L317.524 400.557ZM376.929 384.122L316.558 400.298L317.076 402.23L377.446 386.053L376.929 384.122ZM392.398 324.458L376.222 384.829L378.154 385.346L394.33 324.976L392.398 324.458Z" fill="url(#paint0_linear)" mask="url(#path-1-inside-1)"/>
<defs>
<linearGradient id="paint0_linear" x1="315.139" y1="53.9965" x2="201.518" y2="478.038" gradientUnits="userSpaceOnUse">
<stop stop-opacity="0"/>
<stop offset="0.13767" stop-color="#BDD2D4"/>
<stop offset="0.86685" stop-color="#BDD2D4"/>
<stop offset="1" stop-opacity="0"/>
</linearGradient>
</defs>
</svg>
